<svg width="420" height="280" viewBox="0 0 420 280" fill="none" xmlns="http://www.w3.org/2000/svg">
<defs><linearGradient id="r" x1="105" y1="32" x2="310" y2="250"><stop stop-color="#ff9db0"/><stop offset=".4" stop-color="#ff174e"/><stop offset="1" stop-color="#610016"/></linearGradient><filter id="g"><feGaussianBlur stdDeviation="8"/><feMerge><feMergeNode/><feMergeNode in="SourceGraphic"/></feMerge></filter></defs>
<ellipse cx="210" cy="246" rx="120" ry="20" fill="#ff174e" opacity=".28"/><path d="M146 224V50h46v66h36V50h46v174h-46v-66h-36v66h-46Z" fill="url(#r)" stroke="#ff8fa3" stroke-width="5" filter="url(#g)"/>
<path d="M146 50h46l-20 66h-26V50ZM228 50h46l-24 66h-22V50ZM192 158h36l-18 66h-18v-66Z" fill="white" opacity=".2"/>
<path d="m78 50 11 22 25 4-18 17 4 24-22-12-22 12 4-24-18-17 25-4 11-22Z" fill="#ff174e" filter="url(#g)"/><path d="m331 40 8 17 19 3-14 13 4 18-17-9-17 9 4-18-14-13 19-3 8-17Z" fill="#ff6b81"/>
<circle cx="92" cy="170" r="6" fill="#ff174e"/><circle cx="350" cy="145" r="5" fill="#ff8fa3"/>
</svg>
