<svg width="320" height="320" viewBox="0 0 320 320" fill="none" xmlns="http://www.w3.org/2000/svg"><rect x="25" y="25" width="270" height="270" rx="70" stroke="#ff174e" stroke-width="10"/><path d="M78 8 116 36 101 92 78 110 54 92 40 36 78 8Z" fill="#ff174e"/><path d="M244 10 282 38 267 94 244 112 220 94 206 38 244 10Z" fill="#ff8fa3"/><path d="M78 214 116 242 101 298 78 316 54 298 40 242 78 214Z" fill="#ff174e"/><path d="M244 214 282 242 267 298 244 316 220 298 206 242 244 214Z" fill="#ff8fa3"/></svg>